<?xml version="1.0" encoding="utf-8"?>
<!-- Generator: Adobe Illustrator 16.0.0, SVG Export Plug-In . SVG Version: 6.00 Build 0)  -->
<!DOCTYPE svg PUBLIC "-//W3C//DTD SVG 1.1//EN" "http://www.w3.org/Graphics/SVG/1.1/DTD/svg11.dtd">
<svg version="1.1" id="Layer_1" xmlns="http://www.w3.org/2000/svg" xmlns:xlink="http://www.w3.org/1999/xlink" x="0px" y="0px"
	 width="1980px" height="1400px" viewBox="0 0 1980 1400" enable-background="new 0 0 1980 1400" xml:space="preserve">
<path opacity="0.2" fill="#7450FE" enable-background="new    " d="M169.828,321.213c-12.981,5.801-18.793,21.025-12.997,34.005
	c5.802,12.971,21.019,18.788,33.998,12.992c2.889-1.293,115.957-51.821,119.655-53.476c12.982-5.805,18.799-21.021,12.995-33.995
	c-5.798-12.977-21.016-18.799-33.992-12.999C285.779,269.398,172.714,319.925,169.828,321.213z"/>
<path opacity="0.2" fill="#21D397" enable-background="new    " d="M103.606,982.037c-30.735,13.735-44.495,49.78-30.771,80.513
	c13.738,30.709,49.767,44.485,80.496,30.761c6.841-3.063,274.546-122.696,283.3-126.612c30.74-13.74,44.511-49.771,30.767-80.487
	c-13.727-30.725-49.758-44.51-80.481-30.776C378.139,859.356,110.441,978.988,103.606,982.037z"/>
<path opacity="0.2" fill="#21D397" enable-background="new    " d="M967.87,1068.726c-12.981,5.802-18.793,21.025-12.997,34.006
	c5.802,12.971,21.019,18.789,33.998,12.991c2.889-1.293,115.958-51.82,119.655-53.476c12.982-5.804,18.799-21.021,12.994-33.995
	c-5.797-12.977-21.016-18.799-33.99-12.998C1083.82,1016.91,970.755,1067.437,967.87,1068.726z"/>
<path opacity="0.2" fill="#21D397" enable-background="new    " d="M1255.506,142.645c-14.962,3.804-23.996,19.018-20.195,33.977
	c3.807,14.95,19.01,23.99,33.97,20.19c3.329-0.849,133.647-33.988,137.909-35.075c14.963-3.807,24.001-19.012,20.189-33.966
	c-3.8-14.956-19.004-24-33.961-20.196C1389.145,108.661,1258.832,141.8,1255.506,142.645z"/>
<path opacity="0.2" fill="#21D397" enable-background="new    " d="M1790.009,731.913c-10.23,3.936-15.326,15.419-11.395,25.646
	c3.937,10.223,15.413,15.323,25.642,11.392c2.275-0.877,91.383-35.151,94.297-36.275c10.23-3.938,15.33-15.413,11.391-25.639
	c-3.932-10.226-15.408-15.33-25.636-11.396C1881.387,696.766,1792.284,731.04,1790.009,731.913z"/>
<path opacity="0.2" fill="#7450FE" enable-background="new    " d="M1769.821,372.891c-14.223,4.922-21.75,20.443-16.83,34.664
	c4.925,14.211,20.436,21.745,34.656,16.825c3.164-1.097,127.039-43.983,131.091-45.389c14.223-4.926,21.755-20.438,16.827-34.653
	c-4.92-14.217-20.432-21.756-34.649-16.831C1896.854,328.912,1772.983,371.798,1769.821,372.891z"/>
<path opacity="0.2" fill="#7450FE" enable-background="new    " d="M1727.084,1172.966c-12.815,5.727-18.551,20.755-12.829,33.566
	c5.728,12.804,20.747,18.547,33.561,12.824c2.851-1.275,114.46-51.152,118.109-52.785c12.815-5.729,18.555-20.75,12.826-33.557
	c-5.723-12.809-20.744-18.556-33.554-12.829C1841.539,1121.82,1729.934,1171.694,1727.084,1172.966z"/>
</svg>
