<?xml version="1.0" encoding="utf-8"?>
<!-- Generator: Adobe Illustrator 16.0.0, SVG Export Plug-In . SVG Version: 6.00 Build 0)  -->
<!DOCTYPE svg PUBLIC "-//W3C//DTD SVG 1.1//EN" "http://www.w3.org/Graphics/SVG/1.1/DTD/svg11.dtd">
<svg version="1.1" id="be52d4a0-d7df-45d7-a4d1-9b9d295e8f0e"
	 xmlns="http://www.w3.org/2000/svg" xmlns:xlink="http://www.w3.org/1999/xlink" x="0px" y="0px" width="825.211px"
	 height="661.164px" viewBox="0 0 825.211 661.164" enable-background="new 0 0 825.211 661.164" xml:space="preserve">
<title>analyze</title>
<ellipse fill="#3F3D56" cx="559.095" cy="598.239" rx="158.523" ry="13.279"/>
<path fill="#21D397" d="M689.793,566.792c0,18.648-11.086,25.158-24.762,25.158c-0.316,0-0.633-0.003-0.949-0.01
	c-0.633-0.015-1.261-0.044-1.881-0.086c-12.342-0.874-21.931-7.721-21.931-25.063c0-17.948,22.936-40.597,24.659-42.273l0.002-0.001
	c0.066-0.065,0.1-0.098,0.1-0.098S689.793,548.144,689.793,566.792z"/>
<path fill="#3F3D56" d="M664.129,589.098l9.057-12.654l-9.079,14.045l-0.024,1.452c-0.633-0.015-1.261-0.044-1.881-0.086
	l0.977-18.658l-0.008-0.144l0.017-0.028l0.092-1.762l-9.102-14.079l9.131,12.758l0.021,0.375l0.738-14.097l-7.793-14.549
	l7.888,12.073l0.769-29.226l0.002-0.099v0.098l-0.128,23.044l7.757-9.136l-7.788,11.122l-0.205,12.621l7.242-12.112l-7.272,13.97
	l-0.115,7.016l10.516-16.858l-10.555,19.308L664.129,589.098z"/>
<g>
	<circle fill="#F2F2F2" cx="263.038" cy="242.623" r="31.768"/>
	<circle fill="none" stroke="#3F3D56" stroke-width="2" stroke-miterlimit="10" cx="269.611" cy="233.129" r="31.768"/>
	<path fill="#3F3D56" d="M225.428,183.104l-25.576-42.84c6.981-8.862,5.456-21.705-3.406-28.686
		c-8.862-6.981-21.705-5.456-28.686,3.406c-6.98,8.862-5.456,21.705,3.406,28.685c5.754,4.533,13.495,5.638,20.287,2.895
		L225.428,183.104z"/>
	<circle fill="#21D397" cx="183.802" cy="127.602" r="9.494"/>
	<path fill="#3F3D56" d="M307.461,178.157l35.38-35.181c10.287,4.63,22.38,0.043,27.009-10.244
		c4.63-10.288,0.043-22.38-10.244-27.01c-10.287-4.629-22.38-0.042-27.01,10.245c-3.006,6.679-2.205,14.458,2.1,20.384
		L307.461,178.157z"/>
	<circle fill="#21D397" cx="351.244" cy="124.34" r="9.494"/>
	<path fill="#3F3D56" d="M332.106,256.556l42.696,25.818c-2.004,11.103,5.372,21.726,16.474,23.729s21.726-5.372,23.729-16.475
		c2.003-11.102-5.372-21.725-16.474-23.729c-7.208-1.301-14.562,1.358-19.271,6.968L332.106,256.556z"/>
	<circle fill="#21D397" cx="394.918" cy="286.019" r="9.494"/>
	<path fill="#3F3D56" d="M261.999,299.436l-14.723,47.674c-11.256,0.742-19.78,10.47-19.038,21.725
		c0.742,11.256,10.469,19.781,21.726,19.039c11.257-0.742,19.78-10.471,19.039-21.726c-0.482-7.309-4.841-13.801-11.423-17.014
		L261.999,299.436z"/>
	<circle fill="#21D397" cx="248.606" cy="367.509" r="9.493"/>
	<path fill="#3F3D56" d="M203.432,241.785l-49.819-2.752c-3.443-10.743-14.943-16.66-25.686-13.217
		c-10.742,3.443-16.66,14.943-13.216,25.686c3.443,10.742,14.943,16.66,25.686,13.216c6.975-2.236,12.219-8.035,13.744-15.199
		L203.432,241.785z"/>
	<circle fill="#21D397" cx="134.142" cy="245.259" r="9.493"/>
</g>
<circle fill="#F2F2F2" cx="721.388" cy="103.042" r="12.247"/>
<circle fill="none" stroke="#3F3D56" stroke-width="2" stroke-miterlimit="10" cx="716.408" cy="98.892" r="12.247"/>
<rect x="616.362" y="105.792" fill="#21D397" width="27.666" height="27.666"/>
<rect x="621.896" y="100.259" fill="none" stroke="#3F3D56" stroke-width="2" stroke-miterlimit="10" width="27.666" height="27.666"/>
<path fill="#FBBEBE" d="M552.87,549.686c0,0-2.489,15.769-6.64,18.259c-4.149,2.49,21.579,8.3,21.579,8.3l4.149-24.899
	L552.87,549.686z"/>
<path fill="#2F2E41" d="M583.579,369.583l9.13,10.789l-4.15,37.349l-3.319,73.867c0,0,6.64,63.907,0,65.567
	c-6.64,1.659-36.519,0.829-35.688-3.32s1.659-7.47,3.319-13.279s-1.66-26.559-1.66-26.559l4.15-23.239l-14.939-100.426
	L583.579,369.583z"/>
<path fill="#2F2E41" d="M553.7,565.455c0,0-9.13-1.659-9.96,0c-0.83,1.66-16.599,19.09-19.089,19.09s-20.749,16.599-1.66,17.429
	c19.09,0.83,50.628-14.109,50.628-14.109s-4.641-21.12-4.396-20.105C569.47,568.775,553.7,569.605,553.7,565.455z"/>
<path fill="#FBBEBE" d="M543.74,527.277c0,0,23.239,25.729,24.069,28.219c0.83,2.489,13.279,0,13.279,0l4.979-16.6l-4.149-5.81
	l-23.239-19.089L543.74,527.277z"/>
<path fill="#2F2E41" d="M576.939,546.366l-12.035,11.328c0,0,15.354,23.53,15.354,26.021s0.83,23.239,9.13,19.919
	c8.3-3.319,9.13-36.519,9.13-36.519s-0.83-34.028-5.81-36.519c-4.98-2.489-15.895-1.703-15.895-1.703
	S583.579,545.536,576.939,546.366z"/>
<path fill="#2F2E41" d="M508.052,295.716c0,0-4.149,13.279-4.979,16.599c-0.83,3.32-5.81,12.45-5.81,26.56s1.66,30.709,0,32.369
	c-1.66,1.659-28.219,94.615-16.6,104.575c11.62,9.96,49.798,43.158,52.288,47.308c2.49,4.15,3.319,14.109,8.3,12.45
	c4.979-1.66,24.068-18.26,24.898-21.579c0.83-3.32-10.789-9.13-10.789-9.13s-23.239-34.028-29.049-33.198
	c-5.81,0.829-4.979-4.15-4.15-6.641c0.83-2.489,2.49-4.149,0-4.149c-2.489,0-0.829-6.64,0-9.96
	c0.83-3.319,19.92-48.138,19.92-48.138l50.628-22.409c0,0-2.49-60.588-20.75-77.187l-4.149-9.96
	C567.81,293.226,521.332,289.907,508.052,295.716z"/>
<path fill="#FBBEBE" d="M528.801,164.582c0,0,4.15,29.049-5.81,30.709c-9.959,1.66-18.259,0.83-18.259,1.66
	s24.898,26.559,24.898,26.559l23.239-1.66l20.749-22.409c0,0-19.089-3.32-19.089-14.939c0-11.62-0.83-19.919-0.83-19.919H528.801z"
	/>
<path opacity="0.1" enable-background="new    " d="M528.801,164.582c0,0,4.15,29.049-5.81,30.709
	c-9.959,1.66-18.259,0.83-18.259,1.66s24.898,26.559,24.898,26.559l23.239-1.66l20.749-22.409c0,0-19.089-3.32-19.089-14.939
	c0-11.62-0.83-19.919-0.83-19.919H528.801z"/>
<circle fill="#FBBEBE" cx="541.666" cy="150.887" r="25.729"/>
<path fill="#3F3D56" d="M518.842,192.8c0,0-32.369,4.15-34.858,14.939c-2.49,10.79,16.599,78.017,19.089,83.826s1.66,9.96,1.66,9.96
	c7.599-5.683,17.282-7.801,26.559-5.81c15.77,3.319,38.179,1.659,38.179,1.659s7.47-30.708,9.13-34.028
	c1.659-3.32,8.299-21.579,8.299-26.559s9.96-25.729,9.96-25.729s-4.979-14.939-23.239-14.109c0,0-7.964-3.564-10.207-0.952
	c-2.242,2.612-14.691,14.231-30.461,9.252C517.182,200.27,518.842,192.8,518.842,192.8z"/>
<path fill="#3F3D56" d="M493.112,206.91h-9.129l-4.98,65.567c0,0,18.26,4.98,20.75,1.66
	C502.242,270.817,493.112,206.91,493.112,206.91z"/>
<path fill="#3F3D56" d="M481.493,265.837l-2.49,6.64c0,0-1.659,21.579,8.3,20.749c9.96-0.83,15.77-13.279,15.77-13.279
	s-5.81-15.77-12.449-14.109C483.983,267.497,481.493,265.837,481.493,265.837z"/>
<path fill="#3F3D56" d="M581.089,206.91l15.77,4.15c0,0,11.619,42.328,12.449,43.158s1.66,5.81,1.66,5.81s0,0.83,1.66,3.32
	c1.659,2.49,4.149,0.83,2.489,4.15c-1.659,3.32-4.149,1.66-2.489,4.98c1.659,3.32,0.83,12.449,0.83,12.449
	s-4.15-15.769-19.09-11.619l-9.959-44.818L581.089,206.91z"/>
<path fill="#FF6584" d="M512.36,129.688c-5.233,9.192-6.411,20.081-7.133,30.633c-0.31,4.526-0.542,9.171,0.8,13.504
	c1.415,4.569,4.564,9.211,2.949,13.714c-1.562,4.354-6.785,6.097-9.702,9.688c-2.473,3.042-3.093,7.212-2.878,11.127
	c0.214,3.915,1.163,7.758,1.441,11.668c0.575,8.59-2.076,17.085-7.436,23.824c12.501-0.482,25.867-6.025,31.139-17.371
	c1.576-3.392,2.343-7.104,3.765-10.563c1.608-3.913,4.037-7.455,5.561-11.401c2.299-5.955,2.424-12.494,2.519-18.877
	c0.058-3.821,0.098-7.743-1.224-11.329c-2.911-7.892-11.963-12.991-12.861-21.354c-0.155-0.884-0.024-1.795,0.373-2.6
	c0.423-0.588,0.935-1.106,1.519-1.535c5.651-4.989,4.72-15.55,11.447-18.951c3.02-1.526,6.658-0.989,9.9-0.023
	c3.601,1.072,7.193,2.733,9.535,5.67c4.717,5.915,2.854,14.458,1.396,21.88c-2.115,10.767-2.865,21.757-2.231,32.71
	c0.04,1.752,0.299,3.493,0.769,5.181c0.866,2.739,2.714,5.041,4.108,7.553c2.843,5.164,3.765,11.167,2.604,16.946
	c-1.029,5.029-3.587,10.385-1.336,14.999c0.991,1.782,2.372,3.317,4.038,4.491c7.355,5.765,16.692,9.337,22.161,16.915
	c0.942-6.19-0.854-12.419-2.181-18.538c-1.326-6.119-2.134-12.781,0.592-18.417c1.196-2.473,3.024-4.625,4.002-7.191
	c2.257-5.928-0.434-12.43-2.067-18.56c-1.168-4.813-2.012-9.7-2.524-14.626l-1.686-13.297c-1.394-10.993-2.851-22.21-7.678-32.184
	c-9.098-18.796-29.684-25.777-48.115-15.362C519.095,120.799,515.101,124.831,512.36,129.688z"/>
<path fill="#FBBEBE" d="M489.793,269.987c0,0-4.979,14.939,0.83,14.939s16.6-9.129,17.429-16.599
	c0.83-7.47,15.77-35.688,4.98-33.199c-10.79,2.49-15.77,23.239-15.77,23.239L489.793,269.987z"/>
<polygon fill="#21D397" points="573.619,206.91 546.23,295.716 583.579,304.016 610.968,217.699 "/>
<path fill="#FBBEBE" d="M608.478,270.817l5.186,8.666c0,0,2.284,16.234-9.335,16.234s-28.219-15.77-28.219-15.77
	s-8.3-3.32-13.279-2.49c-4.98,0.83-32.369,0-20.749-14.11c11.619-14.109,31.538,0,31.538,0l20.749,9.96l10.79-5.81L608.478,270.817z
	"/>
<path fill="#3F3D56" d="M601.423,259.613l-8.3,13.279c0,0,19.09,2.49,20.75,6.64c1.659,4.149-7.47-21.579-7.47-21.579
	L601.423,259.613z"/>
</svg>
