<?xml version="1.0" encoding="utf-8"?>
<!-- Generator: Adobe Illustrator 16.0.0, SVG Export Plug-In . SVG Version: 6.00 Build 0)  -->
<!DOCTYPE svg PUBLIC "-//W3C//DTD SVG 1.1//EN" "http://www.w3.org/Graphics/SVG/1.1/DTD/svg11.dtd">
<svg version="1.1" id="fc473563-838c-4b37-be93-34ef803eaab9"
	 xmlns="http://www.w3.org/2000/svg" xmlns:xlink="http://www.w3.org/1999/xlink" x="0px" y="0px" width="1132px"
	 height="861.222px" viewBox="0 0 1132 861.222" enable-background="new 0 0 1132 861.222" xml:space="preserve">
<title>location_search</title>
<rect x="394.766" y="688.605" fill="#3F3D56" width="633.546" height="2.26"/>
<rect x="83.591" y="858.439" fill="#3F3D56" width="780.353" height="2.783"/>
<path fill="#3F3D56" d="M850.328,568.125c86.854,96.049-164.922,234.473-368.363,234.473c-203.44,0-344.189-107.254-368.361-234.473
	C54.995,259.655,612.969,63.595,481.965,333.648C291.016,727.283,781.928,492.48,850.328,568.125z"/>
<circle fill="#D0CDE1" cx="378.792" cy="261.787" r="7.399"/>
<circle fill="#D0CDE1" cx="278.492" cy="704.915" r="7.399"/>
<circle fill="#D0CDE1" cx="391.945" cy="370.308" r="3.288"/>
<circle fill="#D0CDE1" cx="219.298" cy="541.31" r="3.289"/>
<circle fill="#D0CDE1" cx="651.738" cy="664.629" r="3.288"/>
<circle fill="#D0CDE1" cx="208.611" cy="373.596" r="3.289"/>
<polygon fill="#D0CDE1" points="408.388,286.452 406.744,286.452 406.744,284.806 405.921,284.806 405.921,286.452 404.277,286.452 
	404.277,287.273 405.921,287.273 405.921,288.917 406.744,288.917 406.744,287.273 408.388,287.273 "/>
<polygon fill="#D0CDE1" points="282.602,313.582 280.958,313.582 280.958,311.937 280.136,311.937 280.136,313.582 278.492,313.582 
	278.492,314.403 280.136,314.403 280.136,316.047 280.958,316.047 280.958,314.403 282.602,314.403 "/>
<polygon fill="#D0CDE1" points="200.39,468.142 198.746,468.142 198.746,466.498 197.923,466.498 197.923,468.142 196.279,468.142 
	196.279,468.962 197.923,468.962 197.923,470.607 198.746,470.607 198.746,468.962 200.39,468.962 "/>
<circle fill="#D0CDE1" cx="431.408" cy="735.333" r="3.289"/>
<circle fill="#D0CDE1" cx="420.72" cy="567.619" r="3.289"/>
<circle fill="#D0CDE1" cx="809.586" cy="628.457" r="3.289"/>
<polygon fill="#D0CDE1" points="412.498,662.164 410.854,662.164 410.854,660.519 410.033,660.519 410.033,662.164 408.388,662.164 
	408.388,662.986 410.033,662.986 410.033,664.63 410.854,664.63 410.854,662.986 412.498,662.986 "/>
<polygon fill="#D0CDE1" points="571.992,720.533 570.348,720.533 570.348,718.89 569.525,718.89 569.525,720.533 567.881,720.533 
	567.881,721.357 569.525,721.357 569.525,723.001 570.348,723.001 570.348,721.357 571.992,721.357 "/>
<polygon fill="#D0CDE1" points="169.149,574.195 167.505,574.195 167.505,572.55 166.682,572.55 166.682,574.195 165.038,574.195 
	165.038,575.019 166.682,575.019 166.682,576.662 167.505,576.662 167.505,575.019 169.149,575.019 "/>
<polygon fill="#D0CDE1" points="397.7,455.81 396.056,455.81 396.056,454.166 395.234,454.166 395.234,455.81 393.59,455.81 
	393.59,456.63 395.234,456.63 395.234,458.275 396.056,458.275 396.056,456.63 397.7,456.63 "/>
<polygon fill="#D0CDE1" points="296.579,358.798 294.935,358.798 294.935,357.154 294.112,357.154 294.112,358.798 292.468,358.798 
	292.468,359.62 294.112,359.62 294.112,361.265 294.935,361.265 294.935,359.62 296.579,359.62 "/>
<polygon fill="#D0CDE1" points="363.993,520.757 362.349,520.757 362.349,519.113 361.526,519.113 361.526,520.757 359.882,520.757 
	359.882,521.58 361.526,521.58 361.526,523.224 362.349,523.224 362.349,521.58 363.993,521.58 "/>
<polygon fill="#D0CDE1" points="265.337,622.701 263.694,622.701 263.694,621.058 262.871,621.058 262.871,622.701 261.227,622.701 
	261.227,623.523 262.871,623.523 262.871,625.167 263.694,625.167 263.694,623.523 265.337,623.523 "/>
<ellipse fill="#7450FE" cx="299.045" cy="476.363" rx="48.505" ry="7.4"/>
<path fill="#D0CDE1" d="M303.978,478.83c-19.828,0-49.328-2.189-49.328-8.223c0-6.031,29.5-8.221,49.328-8.221
	s49.328,2.189,49.328,8.221C353.305,476.64,323.806,478.83,303.978,478.83z M303.978,464.031c-12.916,0-25.053,0.766-34.174,2.158
	c-10.686,1.629-13.509,3.604-13.509,4.418c0,0.816,2.823,2.789,13.509,4.42c9.122,1.393,21.258,2.158,34.174,2.158
	c12.917,0,25.054-0.766,34.175-2.158c10.686-1.631,13.509-3.604,13.509-4.42c0-0.814-2.823-2.789-13.509-4.418
	C329.031,464.796,316.894,464.031,303.978,464.031z"/>
<path fill="#7450FE" d="M303.978,350.577c-17.254,0-31.241,4.121-31.241,21.375s13.987,86.323,31.241,86.323
	s31.241-69.069,31.241-86.323S321.231,350.577,303.978,350.577z M303.978,394.973c-7.265,0-13.154-5.891-13.154-13.155
	c0-7.264,5.889-13.153,13.154-13.153c7.265,0,13.154,5.89,13.154,13.154S311.243,394.973,303.978,394.973L303.978,394.973
	L303.978,394.973z"/>
<path fill="#D0CDE1" d="M887.885,538.695c-68.4-75.641-559.312,159.16-368.362-234.475
	c85.116-175.463-120.619-154.151-259.112-33.087c134.111-92.088,295.992-94.742,218.828,64.329
	C288.289,729.095,779.201,494.294,847.6,569.937c31.828,35.197,18.182,76.082-21.893,113.764
	C894.586,638.556,928.785,583.929,887.885,538.695z"/>
<path fill="#D0CDE1" d="M485.347,801.095l-1.058-0.396c-0.232-0.088-23.364-8.951-34.201-29.045
	c-10.836-20.098-5.53-44.295-5.475-44.537l0.25-1.102l1.058,0.396c0.232,0.088,23.363,8.951,34.2,29.047
	c10.837,20.098,5.531,44.293,5.477,44.535L485.347,801.095z M451.824,770.718c9.161,16.99,27.441,25.699,32.073,27.688
	c0.881-4.963,3.643-25.037-5.511-42.012c-9.152-16.973-27.44-25.695-32.073-27.689C445.432,733.671,442.671,753.744,451.824,770.718
	L451.824,770.718z"/>
<path fill="#7450FE" d="M458.37,765.589c19.475,11.715,26.975,34.986,26.975,34.986s-24.073,4.277-43.547-7.439
	s-26.974-34.988-26.974-34.988S438.896,753.873,458.37,765.589z"/>
<path fill="#FFB9B9" d="M731.615,340.148c0,0-44.621,43.729-25.881,49.084c18.74,5.354,40.158-40.16,40.158-40.16L731.615,340.148z"
	/>
<polygon fill="#FFB9B9" points="776.236,487.4 770.881,512.386 811.041,514.173 804.793,487.4 "/>
<polygon fill="#FFB9B9" points="902.963,641.792 897.607,666.779 937.768,668.564 931.52,641.792 "/>
<path fill="#2F2E41" d="M832.461,320.515l3.568,14.279c0,0-99.061-19.633-93.705,30.343c5.355,49.977,28.559,98.168,28.559,98.168
	s-1.785,16.064,1.785,18.74c3.568,2.68,0,11.604,0,11.604s33.02,4.461,33.912-3.572c0.477-5.369,0.176-10.779-0.893-16.063
	c0,0,1.785,0,0-8.924s-8.994-80.897-14.35-90.714c0,0,47.369,36.275,72.357,31.813c0,0-3.57,35.699,10.709,82.998
	s14.279,52.652,14.279,52.652s16.955,90.137,12.494,100.846l-0.893,4.463h33.021c0,0-2.678-47.299,0-53.547
	c2.676-6.248,2.676-59.793-12.496-86.564c-10.742-18.961-8.742-73.936-2.865-95.664c4.936-18.248,6.182-32.292,3.289-50.972
	c-3.094-19.977-12.332-30.419-23.627-39.884H832.461z"/>
<circle fill="#FFB9B9" cx="858.787" cy="154.075" r="32.128"/>
<path fill="#FFB9B9" d="M850.309,176.832c0,0,9.816,28.558,8.924,33.913c-0.893,5.354,28.559-10.709,28.559-10.709
	s-11.602-28.558-8.033-36.59L850.309,176.832z"/>
<path fill="#D0CDE1" d="M886.006,190.219l-31.234,12.494l1.785,10.709c0,0-2.678,3.57-1.785,5.355
	c0.893,1.785-11.602,8.924-9.816,11.602c1.783,2.677-10.711,13.386-9.818,16.064c0.893,2.677-28.557,18.741-12.494,49.977
	c0,0,8.33,10.827,7.285,23.631c-0.037,0.45-0.084,0.902-0.145,1.357c-1.785,13.387,67.824-1.785,67.824-1.785v-15.171
	c0,0,6.248-2.677,5.355-14.279c-0.893-11.602-6.248-6.247,0-12.494c6.246-6.248,6.246-5.355,5.354-10.709
	c-0.355-2.138-0.428-9.827-0.385-18.292c0.082-17.886-5.744-35.298-16.57-49.534l0,0L886.006,190.219z"/>
<path fill="#D0CDE1" d="M869.049,213.422l-58.008,60.686l-84.781,66.933l18.742,15.171l156.176-104.415
	C901.178,251.797,914.564,194.681,869.049,213.422z"/>
<path fill="#2F2E41" d="M778.914,500.787c0,0-6.246-10.711-10.709-7.139l-31.236,24.986c0,0-55.33,16.064-1.783,28.559
	c0,0,29.449,4.463,35.695,0c6.248-4.463,16.064-3.57,18.742-1.785s36.59-0.891,36.59-8.031c0-7.139-18.703-38.342-18.703-38.342
	S796.762,511.496,778.914,500.787z"/>
<path fill="#2F2E41" d="M905.639,655.177c0,0-6.246-10.709-10.709-7.139l-31.234,24.988c0,0-55.332,16.064-1.785,28.559
	c0,0,29.451,4.461,35.697,0c6.248-4.463,16.064-3.57,18.742-1.787c2.678,1.787,36.59-0.893,36.59-8.031
	c0-7.141-18.705-38.342-18.705-38.342S923.488,665.888,905.639,655.177z"/>
<path fill="#2F2E41" d="M820.285,141.334c0,0,5.432-47.751,51.891-34.193c0,0,32.869-6.685,44.477,34.365l11.783,43.038
	l-5.393-2.803l-2.385,5.487l-8.607,2.356l-3.842-7.276l-1.621,8.956l-59.443,12.019c0,0,20.105-22.97,19.963-56.611l-5.922,6.503
	L820.285,141.334z"/>
<ellipse fill="#2F2E41" cx="605.699" cy="552.82" rx="87.145" ry="11.51"/>
<path fill="#3F3D56" d="M653.041,413.648h-1.031v-28.261c0-9.034-7.324-16.357-16.357-16.357l0,0h-59.875
	c-9.035,0-16.358,7.323-16.358,16.356c0,0,0,0,0,0.001v155.045c0,9.033,7.323,16.355,16.358,16.355l0,0h59.875
	c9.033,0,16.357-7.322,16.357-16.355l0,0V433.765h1.031V413.648z"/>
<path fill="#7450FE" d="M635.926,373.672h-7.814c1.209,2.968-0.215,6.355-3.184,7.566c-0.695,0.283-1.439,0.43-2.191,0.43h-34.301
	c-3.207,0-5.805-2.599-5.805-5.804c0-0.752,0.146-1.495,0.43-2.192h-7.299c-6.746,0-12.215,5.469-12.215,12.215v154.819
	c0,6.744,5.469,12.213,12.215,12.213h60.164c6.746,0,12.215-5.469,12.215-12.213V385.888
	C648.141,379.142,642.672,373.672,635.926,373.672z"/>
<circle fill="#D0CDE1" cx="592.545" cy="428.679" r="17.265"/>
<path fill="#3F3D56" d="M637.422,453.734l-20.883-20.881c5.723-8.725,3.291-20.438-5.434-26.162
	c-8.725-5.723-20.438-3.29-26.162,5.435c-5.723,8.725-3.289,20.438,5.436,26.161c6.293,4.127,14.434,4.127,20.727,0l20.883,20.883
	L637.422,453.734z M591.23,431.998c-5.254-5.253-5.254-13.768,0-19.021c5.252-5.252,13.768-5.252,19.02,0
	c5.252,5.253,5.252,13.768,0,19.021l0,0C604.998,437.25,596.482,437.25,591.23,431.998z"/>
<rect x="571.992" y="473.896" fill="#3F3D56" width="67.414" height="8.223"/>
</svg>
